<svg width="278" height="216" viewBox="0 0 278 216" fill="none" xmlns="http://www.w3.org/2000/svg">
<path d="M0 60C0 53.3726 5.36486 48 11.9828 48H23.9655V168H11.9828C5.36486 168 0 162.627 0 156V60Z" fill="#F6F6F6"/>
<path d="M33.5517 19.2C33.5517 8.59613 42.1355 0 52.7241 0H62.3103C72.899 0 81.4828 8.59613 81.4828 19.2V196.8C81.4828 207.404 72.899 216 62.3103 216H52.7241C42.1355 216 33.5517 207.404 33.5517 196.8V19.2Z" fill="#F6F6F6"/>
<path d="M196.517 19.2C196.517 8.59613 205.101 0 215.69 0H225.276C235.864 0 244.448 8.59613 244.448 19.2V196.8C244.448 207.404 235.864 216 225.276 216H215.69C205.101 216 196.517 207.404 196.517 196.8V19.2Z" fill="#F6F6F6"/>
<path d="M278 60C278 53.3726 272.635 48 266.017 48H254.034V168H266.017C272.635 168 278 162.627 278 156V60Z" fill="#F6F6F6"/>
<path d="M91.069 84H186.931V132H91.069V84Z" fill="#F6F6F6"/>
</svg>
