<svg width="961" height="245" viewBox="0 0 961 245" fill="none" xmlns="http://www.w3.org/2000/svg">
<path d="M399.232 24.96H354.304V44.672H393.856V64.256H354.304V94.976H328.96V5.376H399.232V24.96Z" fill="#F6F6F6"/>
<path d="M412.493 94.976V0H436.813V94.976H412.493Z" fill="#F6F6F6"/>
<path d="M526.09 60.416C526.09 62.208 525.834 64.512 525.706 66.432H475.274C477.322 73.472 483.338 77.568 492.298 77.568C499.082 77.568 503.562 75.648 508.298 71.552L521.098 84.864C514.442 92.288 504.714 96.128 491.53 96.128C466.826 96.128 450.826 80.896 450.826 60.16C450.826 39.296 467.082 24.448 488.97 24.448C509.45 24.448 526.09 37.504 526.09 60.416ZM489.098 41.728C481.546 41.728 476.298 46.336 474.89 53.632H503.306C502.026 46.336 496.65 41.728 489.098 41.728Z" fill="#F6F6F6"/>
<path d="M609.796 94.976H582.02L569.604 76.8L556.292 94.976H529.924L556.292 60.288L530.692 25.6H558.084L570.372 43.136L583.172 25.6H608.9L583.3 59.392L609.796 94.976Z" fill="#F6F6F6"/>
<path d="M720.792 72.832V48.256H743.192V85.376C732.824 92.8 718.616 96.768 705.56 96.768C677.016 96.768 656.152 77.44 656.152 50.176C656.152 22.912 677.016 3.584 706.072 3.584C722.84 3.584 736.408 9.344 745.24 19.968L729.112 34.56C722.968 27.776 715.928 24.576 707.352 24.576C691.992 24.576 681.752 34.688 681.752 50.176C681.752 65.28 691.992 75.776 707.096 75.776C711.832 75.776 716.312 74.88 720.792 72.832Z" fill="#F6F6F6"/>
<path d="M810.588 25.6H833.756L803.804 97.792C796.508 115.712 786.268 120.96 772.572 120.96C765.276 120.96 757.084 118.528 752.476 114.688L760.924 97.664C763.74 100.224 767.836 101.76 771.676 101.76C776.412 101.76 779.1 99.968 781.148 95.872L751.452 25.6H776.412L793.436 67.968L810.588 25.6Z" fill="#F6F6F6"/>
<path d="M932.971 24.448C949.099 24.448 961.003 33.792 961.003 55.296V94.976H936.683V59.264C936.683 49.28 932.587 45.056 926.187 45.056C919.147 45.056 914.027 49.792 914.027 60.544V94.976H889.707V59.264C889.707 49.28 885.739 45.056 879.211 45.056C872.043 45.056 866.923 49.792 866.923 60.544V94.976H842.603V25.6H865.771V32.896C871.019 27.264 878.315 24.448 886.507 24.448C895.979 24.448 904.043 27.904 908.907 35.328C914.411 28.416 922.987 24.448 932.971 24.448Z" fill="#F6F6F6"/>
<path d="M329.592 218.976V129.376H339.064V218.976H329.592Z" fill="#F6F6F6"/>
<path d="M400.601 151.136C416.985 151.136 428.249 160.608 428.249 179.936V218.976H419.161V180.832C419.161 166.624 411.737 159.328 398.937 159.328C384.473 159.328 375.385 168.288 375.385 183.648V218.976H366.297V151.648H375.001V164.064C379.865 155.872 388.953 151.136 400.601 151.136Z" fill="#F6F6F6"/>
<path d="M499.288 151.648H508.248L478.296 218.976H468.952L439.128 151.648H448.6L473.816 208.992L499.288 151.648Z" fill="#F6F6F6"/>
<path d="M577.924 185.312C577.924 186.08 577.796 187.104 577.796 188.128H521.476C522.5 202.208 533.252 211.552 547.972 211.552C556.164 211.552 563.46 208.608 568.58 202.72L573.7 208.608C567.684 215.776 558.34 219.616 547.716 219.616C526.724 219.616 512.388 205.28 512.388 185.312C512.388 165.344 526.34 151.136 545.284 151.136C564.228 151.136 577.924 165.088 577.924 185.312ZM545.284 158.944C532.228 158.944 522.628 168.16 521.476 181.344H569.22C568.068 168.16 558.468 158.944 545.284 158.944Z" fill="#F6F6F6"/>
<path d="M630.726 151.136C647.11 151.136 658.374 160.608 658.374 179.936V218.976H649.286V180.832C649.286 166.624 641.862 159.328 629.062 159.328C614.598 159.328 605.51 168.288 605.51 183.648V218.976H596.422V151.648H605.126V164.064C609.99 155.872 619.078 151.136 630.726 151.136Z" fill="#F6F6F6"/>
<path d="M715.303 208.352L718.503 214.88C714.919 218.08 709.543 219.616 704.295 219.616C691.623 219.616 684.583 212.448 684.583 200.032V159.328H672.551V151.648H684.583V136.928H693.671V151.648H714.151V159.328H693.671V199.52C693.671 207.456 697.767 211.808 705.319 211.808C709.031 211.808 712.743 210.656 715.303 208.352Z" fill="#F6F6F6"/>
<path d="M760.192 219.616C740.48 219.616 725.888 205.28 725.888 185.312C725.888 165.344 740.48 151.136 760.192 151.136C779.904 151.136 794.368 165.344 794.368 185.312C794.368 205.28 779.904 219.616 760.192 219.616ZM760.192 211.552C774.528 211.552 785.152 201.056 785.152 185.312C785.152 169.568 774.528 159.072 760.192 159.072C745.856 159.072 735.104 169.568 735.104 185.312C735.104 201.056 745.856 211.552 760.192 211.552Z" fill="#F6F6F6"/>
<path d="M821.626 164.832C825.85 155.872 834.426 151.136 846.842 151.136V159.968C846.074 159.968 845.306 159.84 844.666 159.84C830.586 159.84 822.01 168.8 822.01 184.672V218.976H812.922V151.648H821.626V164.832Z" fill="#F6F6F6"/>
<path d="M913.788 151.648H922.748L889.084 227.04C883.452 240.224 876.284 244.448 866.684 244.448C860.412 244.448 854.396 242.4 850.3 238.304L854.524 231.52C857.852 234.848 861.948 236.64 866.812 236.64C872.828 236.64 876.924 233.824 880.764 225.376L883.708 218.848L853.628 151.648H863.1L888.444 208.864L913.788 151.648Z" fill="#F6F6F6"/>
<path d="M0 64.7222C0 58.1255 5.36486 52.7778 11.9828 52.7778H23.9655V172.222H11.9828C5.36486 172.222 0 166.875 0 160.278V64.7222Z" fill="#F6F6F6"/>
<path d="M33.5517 24.1111C33.5517 13.5563 42.1355 5 52.7241 5H62.3103C72.899 5 81.4828 13.5563 81.4828 24.1111V200.889C81.4828 211.444 72.899 220 62.3103 220H52.7241C42.1355 220 33.5517 211.444 33.5517 200.889V24.1111Z" fill="#F6F6F6"/>
<path d="M196.517 24.1111C196.517 13.5563 205.101 5 215.69 5H225.276C235.864 5 244.448 13.5563 244.448 24.1111V200.889C244.448 211.444 235.864 220 225.276 220H215.69C205.101 220 196.517 211.444 196.517 200.889V24.1111Z" fill="#F6F6F6"/>
<path d="M278 64.7222C278 58.1255 272.635 52.7778 266.017 52.7778H254.034V172.222H266.017C272.635 172.222 278 166.875 278 160.278V64.7222Z" fill="#F6F6F6"/>
<path d="M91.069 88.6111H186.931V136.389H91.069V88.6111Z" fill="#F6F6F6"/>
</svg>
